<?xml version="1.0" standalone="no"?>
<!DOCTYPE svg PUBLIC "-//W3C//DTD SVG 20010904//EN"
 "http://www.w3.org/TR/2001/REC-SVG-20010904/DTD/svg10.dtd">
<svg version="1.0" xmlns="http://www.w3.org/2000/svg"
 width="512.000000pt" height="512.000000pt" viewBox="0 0 512.000000 512.000000"
 preserveAspectRatio="xMidYMid meet">

<g transform="translate(0.000000,512.000000) scale(0.100000,-0.100000)"
fill="#000000" stroke="none">
<path d="M1450 4481 l-1105 -638 0 -1283 0 -1283 1106 -638 1106 -639 1106
637 1106 638 0 1285 0 1285 -1101 635 c-606 349 -1104 636 -1107 637 -3 1
-503 -285 -1111 -636z m960 30 l0 -169 -660 -381 -660 -381 -151 87 c-126 72
-147 88 -132 97 10 5 371 214 803 463 432 249 788 453 793 453 4 0 7 -76 7
-169z m1082 -277 c425 -245 786 -454 802 -464 l28 -17 -143 -83 c-79 -46 -147
-84 -150 -86 -3 -2 -300 167 -660 374 l-654 378 -3 172 c-1 95 0 172 2 172 3
0 353 -201 778 -446z m-360 -485 c315 -182 576 -334 580 -338 6 -5 -1119 -664
-1151 -674 -5 -1 -657 371 -1108 634 l-63 36 583 336 c320 185 583 337 584
337 1 0 259 -149 575 -331z m-2341 -343 l144 -83 3 -761 2 -761 -82 -49 c-46
-27 -113 -65 -150 -86 l-68 -38 0 931 c0 512 2 931 4 931 2 0 68 -38 147 -84z
m3677 -1310 l-3 -465 -147 86 -148 85 0 758 0 758 148 85 147 86 3 -465 c1
-255 1 -673 0 -928z m-2638 711 l575 -332 3 -674 c2 -537 0 -672 -10 -668 -7
3 -269 153 -583 334 l-570 330 -3 671 c-1 370 1 672 5 672 5 0 267 -150 583
-333z m2040 -339 l-1 -673 -521 -300 c-287 -165 -547 -315 -580 -333 l-58 -33
0 673 0 673 573 332 c314 182 575 332 580 332 4 1 7 -302 7 -671z m-2120
-1309 l660 -381 0 -170 c0 -154 -2 -170 -17 -164 -12 5 -1588 911 -1601 921
-2 1 286 171 295 174 2 1 300 -170 663 -380z m2429 291 l143 -83 -28 -17 c-59
-37 -1575 -910 -1580 -910 -2 0 -3 77 -2 172 l3 172 654 378 c360 207 657 376
660 374 3 -2 71 -40 150 -86z"/>
</g>
</svg>
